
<svg width="121px" height="118px" viewBox="0 0 121 118" version="1.1" xmlns="http://www.w3.org/2000/svg" xmlns:xlink="http://www.w3.org/1999/xlink">
    <!-- Generator: Sketch 46 (44423) - http://www.bohemiancoding.com/sketch -->
    <desc>Created with Sketch.</desc>
    <defs></defs>
    <g id="Page-1" stroke="none" stroke-width="1" fill="none" fill-rule="evenodd">
        <g id="Logo" transform="translate(2.000000, 2.000000)" stroke-width="3">
            <path d="M111.912943,22.6555992 L94.1180647,40.4504778 C97.8716989,47.4679151 100,55.4854119 100,64 C100,91.6142375 77.6142375,114 50,114 C22.3857625,114 0,91.6142375 0,64 C0,36.3857625 22.3857625,14 50,14 C60.0240311,14 69.3591026,16.9497865 77.1845292,22.0286743 L94.2409252,4.97227825 C93.2220872,3.79368321 93.2722152,2.01041873 94.3913094,0.891324616 C95.5628822,-0.280248259 97.4623772,-0.280248259 98.63395,0.891324616 L116.31162,18.5689941 C117.483192,19.740567 117.483192,21.640062 116.31162,22.8116348 C115.140047,23.9832077 113.240552,23.9832077 112.068979,22.8116348 L111.912943,22.6555992 Z" id="Flask" stroke="#979797" fill="#D8D8D8"></path>
            <path d="M95,64 C95,88.8528137 74.8528137,109 50,109 L50,109 C25.1471863,109 5,88.8528137 5,64 C5,52.0735931 15.0735931,42 27.5,42 C39.9264069,42 50,52.0735931 50,64.5 C50,75.9264069 60.0735931,86 72.5,86 L72.5,86 C84.9264069,86 95,75.9264069 95,63.5" id="Blood" stroke="#A11D1D" fill="#A11D1D"></path>
        </g>
    </g>
</svg>
